<?xml version="1.0" encoding="UTF-8" standalone="no"?>
<!DOCTYPE svg PUBLIC "-//W3C//DTD SVG 1.1//EN"
 "http://www.w3.org/Graphics/SVG/1.1/DTD/svg11.dtd">
<!-- Generated by graphviz version 2.40.1 (20161225.0304)
 -->
<!-- Title: snakemake_dag Pages: 1 -->
<svg width="294pt" height="260pt"
 viewBox="0.00 0.00 293.50 260.00" xmlns="http://www.w3.org/2000/svg" xmlns:xlink="http://www.w3.org/1999/xlink">
<g id="graph0" class="graph" transform="scale(1 1) rotate(0) translate(4 256)">
<title>snakemake_dag</title>
<polygon fill="#ffffff" stroke="transparent" points="-4,4 -4,-256 289.5,-256 289.5,4 -4,4"/>
<!-- 0 -->
<g id="node1" class="node">
<title>0</title>
<path fill="none" stroke="#56a2d8" stroke-width="2" d="M148,-36C148,-36 118,-36 118,-36 112,-36 106,-30 106,-24 106,-24 106,-12 106,-12 106,-6 112,0 118,0 118,0 148,0 148,0 154,0 160,-6 160,-12 160,-12 160,-24 160,-24 160,-30 154,-36 148,-36"/>
<text text-anchor="middle" x="133" y="-15.5" font-family="sans" font-size="10.00" fill="#000000">all</text>
</g>
<!-- 1 -->
<g id="node2" class="node">
<title>1</title>
<path fill="none" stroke="#56d87b" stroke-width="2" d="M76,-108C76,-108 12,-108 12,-108 6,-108 0,-102 0,-96 0,-96 0,-84 0,-84 0,-78 6,-72 12,-72 12,-72 76,-72 76,-72 82,-72 88,-78 88,-84 88,-84 88,-96 88,-96 88,-102 82,-108 76,-108"/>
<text text-anchor="middle" x="44" y="-87.5" font-family="sans" font-size="10.00" fill="#000000">msisensor_pro</text>
</g>
<!-- 1&#45;&gt;0 -->
<g id="edge2" class="edge">
<title>1&#45;&gt;0</title>
<path fill="none" stroke="#c0c0c0" stroke-width="2" d="M66.4585,-71.8314C77.4205,-62.9632 90.7699,-52.1637 102.6265,-42.5718"/>
<polygon fill="#c0c0c0" stroke="#c0c0c0" stroke-width="2" points="104.9755,-45.1734 110.5487,-36.1628 100.5729,-39.7313 104.9755,-45.1734"/>
</g>
<!-- 2 -->
<g id="node3" class="node">
<title>2</title>
<path fill="none" stroke="#d8a456" stroke-width="2" d="M148,-108C148,-108 118,-108 118,-108 112,-108 106,-102 106,-96 106,-96 106,-84 106,-84 106,-78 112,-72 118,-72 118,-72 148,-72 148,-72 154,-72 160,-78 160,-84 160,-84 160,-96 160,-96 160,-102 154,-108 148,-108"/>
<text text-anchor="middle" x="133" y="-87.5" font-family="sans" font-size="10.00" fill="#000000">tmb</text>
</g>
<!-- 2&#45;&gt;0 -->
<g id="edge1" class="edge">
<title>2&#45;&gt;0</title>
<path fill="none" stroke="#c0c0c0" stroke-width="2" d="M133,-71.8314C133,-64.131 133,-54.9743 133,-46.4166"/>
<polygon fill="#c0c0c0" stroke="#c0c0c0" stroke-width="2" points="136.5001,-46.4132 133,-36.4133 129.5001,-46.4133 136.5001,-46.4132"/>
</g>
<!-- 3 -->
<g id="node4" class="node">
<title>3</title>
<path fill="none" stroke="#c6d856" stroke-width="2" d="M273.5,-108C273.5,-108 190.5,-108 190.5,-108 184.5,-108 178.5,-102 178.5,-96 178.5,-96 178.5,-84 178.5,-84 178.5,-78 184.5,-72 190.5,-72 190.5,-72 273.5,-72 273.5,-72 279.5,-72 285.5,-78 285.5,-84 285.5,-84 285.5,-96 285.5,-96 285.5,-102 279.5,-108 273.5,-108"/>
<text text-anchor="middle" x="232" y="-87.5" font-family="sans" font-size="10.00" fill="#000000">fix_scarhrd_output</text>
</g>
<!-- 3&#45;&gt;0 -->
<g id="edge3" class="edge">
<title>3&#45;&gt;0</title>
<path fill="none" stroke="#c0c0c0" stroke-width="2" d="M207.0181,-71.8314C194.7072,-62.8779 179.6893,-51.9558 166.4063,-42.2955"/>
<polygon fill="#c0c0c0" stroke="#c0c0c0" stroke-width="2" points="168.1199,-39.214 157.9739,-36.1628 164.0027,-44.8752 168.1199,-39.214"/>
</g>
<!-- 4 -->
<g id="node5" class="node">
<title>4</title>
<path fill="none" stroke="#78d856" stroke-width="2" d="M247,-180C247,-180 217,-180 217,-180 211,-180 205,-174 205,-168 205,-168 205,-156 205,-156 205,-150 211,-144 217,-144 217,-144 247,-144 247,-144 253,-144 259,-150 259,-156 259,-156 259,-168 259,-168 259,-174 253,-180 247,-180"/>
<text text-anchor="middle" x="232" y="-159.5" font-family="sans" font-size="10.00" fill="#000000">scarhrd</text>
</g>
<!-- 4&#45;&gt;3 -->
<g id="edge4" class="edge">
<title>4&#45;&gt;3</title>
<path fill="none" stroke="#c0c0c0" stroke-width="2" d="M232,-143.8314C232,-136.131 232,-126.9743 232,-118.4166"/>
<polygon fill="#c0c0c0" stroke="#c0c0c0" stroke-width="2" points="235.5001,-118.4132 232,-108.4133 228.5001,-118.4133 235.5001,-118.4132"/>
</g>
<!-- 5 -->
<g id="node6" class="node">
<title>5</title>
<path fill="none" stroke="#56d8c9" stroke-width="2" d="M264.5,-252C264.5,-252 199.5,-252 199.5,-252 193.5,-252 187.5,-246 187.5,-240 187.5,-240 187.5,-228 187.5,-228 187.5,-222 193.5,-216 199.5,-216 199.5,-216 264.5,-216 264.5,-216 270.5,-216 276.5,-222 276.5,-228 276.5,-228 276.5,-240 276.5,-240 276.5,-246 270.5,-252 264.5,-252"/>
<text text-anchor="middle" x="232" y="-231.5" font-family="sans" font-size="10.00" fill="#000000">cnvkit2scarhrd</text>
</g>
<!-- 5&#45;&gt;4 -->
<g id="edge5" class="edge">
<title>5&#45;&gt;4</title>
<path fill="none" stroke="#c0c0c0" stroke-width="2" d="M232,-215.8314C232,-208.131 232,-198.9743 232,-190.4166"/>
<polygon fill="#c0c0c0" stroke="#c0c0c0" stroke-width="2" points="235.5001,-190.4132 232,-180.4133 228.5001,-190.4133 235.5001,-190.4132"/>
</g>
</g>
</svg>
